<?xml version="1.0" encoding="iso-8859-1"?>
<!-- Uploaded to: SVG Repo, www.svgrepo.com, Generator: SVG Repo Mixer Tools -->
<svg height="800px" width="800px" version="1.1" id="Layer_1" xmlns="http://www.w3.org/2000/svg" xmlns:xlink="http://www.w3.org/1999/xlink" 
	 viewBox="0 0 512 512" xml:space="preserve">
<g>
	<path style="fill:#ABABAB;" d="M63.296,418.037H28.737V256h34.559c18.834,0,34.101,15.267,34.101,34.101v93.835
		C97.396,402.769,82.129,418.037,63.296,418.037z"/>
	<path style="fill:#ABABAB;" d="M483.263,418.037h-34.559c-18.834,0-34.101-15.267-34.101-34.101v-93.835
		c0-18.834,15.267-34.101,34.101-34.101h34.559V418.037z"/>
</g>
<path d="M18.538,418.037c0,5.633,4.566,10.199,10.199,10.199h34.559c24.427,0,44.3-19.873,44.3-44.3v-93.834
	c0-24.427-19.873-44.3-44.3-44.3h-24.36v-8.339C38.936,117.772,136.31,20.398,256,20.398c68.305,0,129.33,31.723,169.15,81.198
	c-0.651-0.551-1.291-1.108-1.951-1.653C378.45,62.944,319.071,42.568,256,42.568c-29.96,0-59.167,4.589-86.807,13.639
	c-5.354,1.752-8.272,7.513-6.519,12.866s7.516,8.274,12.866,6.519c25.589-8.378,52.658-12.626,80.459-12.626
	c119.69,0,217.064,79.718,217.064,177.705v5.128h-24.359c-24.427,0-44.3,19.873-44.3,44.3v93.834
	c0,22.916,17.491,41.823,39.823,44.075v73.791c0,5.633,4.566,10.199,10.199,10.199s10.199-4.566,10.199-10.199v-73.565h18.638
	c5.633,0,10.199-4.566,10.199-10.199V237.462c0-63.428-24.7-123.061-69.551-167.911C379.061,24.7,319.428,0,256,0
	S132.939,24.7,88.09,69.55c-44.851,44.851-69.551,104.483-69.551,167.91C18.538,237.461,18.538,418.037,18.538,418.037z
	 M87.198,290.101v93.834c0,13.179-10.722,23.902-23.902,23.902h-24.36V266.199h24.36C76.475,266.199,87.198,276.922,87.198,290.101z
	 M473.064,407.838h-24.36c-13.179,0-23.902-10.722-23.902-23.902v-93.834c0-13.179,10.722-23.902,23.902-23.902h24.36V407.838z"/>
<path d="M129.901,72.743c-2.143,1.121-4.291,2.286-6.386,3.462c-4.911,2.758-6.657,8.975-3.9,13.887
	c1.872,3.333,5.334,5.208,8.903,5.208c1.69,0,3.404-0.421,4.984-1.308c1.919-1.078,3.889-2.146,5.854-3.174
	c4.991-2.612,6.92-8.774,4.309-13.766C141.055,72.06,134.893,70.133,129.901,72.743z"/>
</svg>