<?xml version="1.0" encoding="iso-8859-1"?>
<!-- Uploaded to: SVG Repo, www.svgrepo.com, Generator: SVG Repo Mixer Tools -->
<svg version="1.1" id="Layer_1" xmlns="http://www.w3.org/2000/svg" xmlns:xlink="http://www.w3.org/1999/xlink" 
	 viewBox="0 0 512 512" xml:space="preserve">
<rect x="72.547" y="10.199" style="fill:#FFFFFF;" width="366.896" height="491.602"/>
<rect x="112.895" y="48.956" style="fill:#8AE4FF;" width="286.21" height="83.633"/>
<g>
	<rect x="112.895" y="173.386" style="fill:#ABABAB;" width="50.858" height="52.718"/>
	<rect x="190.797" y="173.386" style="fill:#ABABAB;" width="50.858" height="52.718"/>
	<rect x="269.137" y="173.386" style="fill:#ABABAB;" width="50.858" height="52.718"/>
	<rect x="112.895" y="251.839" style="fill:#ABABAB;" width="50.858" height="52.718"/>
	<rect x="190.797" y="251.839" style="fill:#ABABAB;" width="50.858" height="52.718"/>
	<rect x="269.137" y="251.839" style="fill:#ABABAB;" width="50.858" height="52.718"/>
	<rect x="112.895" y="331.617" style="fill:#ABABAB;" width="50.858" height="52.718"/>
	<rect x="190.797" y="331.617" style="fill:#ABABAB;" width="50.858" height="52.718"/>
	<rect x="269.137" y="331.617" style="fill:#ABABAB;" width="50.858" height="52.718"/>
	<rect x="112.895" y="411.344" style="fill:#ABABAB;" width="50.858" height="52.718"/>
	<rect x="190.797" y="411.344" style="fill:#ABABAB;" width="50.858" height="52.718"/>
	<rect x="269.137" y="411.344" style="fill:#ABABAB;" width="50.858" height="52.718"/>
	<rect x="347.915" y="173.386" style="fill:#ABABAB;" width="50.858" height="52.718"/>
	<rect x="347.915" y="251.839" style="fill:#ABABAB;" width="50.858" height="52.718"/>
</g>
<rect x="347.915" y="331.474" style="fill:#FF343B;" width="50.858" height="132.59"/>
<path d="M439.449,512H72.551c-5.633,0-10.199-4.567-10.199-10.199V10.199C62.352,4.567,66.918,0,72.551,0h366.898
	c5.632,0,10.199,4.567,10.199,10.199v491.602C449.648,507.433,445.081,512,439.449,512z M82.75,491.602h346.5V20.398H82.75V491.602z
	"/>
<path d="M399.105,142.789h-286.21c-5.633,0-10.199-4.567-10.199-10.199V48.956c0-5.632,4.566-10.199,10.199-10.199h286.21
	c5.632,0,10.199,4.567,10.199,10.199v83.633C409.304,138.222,404.738,142.789,399.105,142.789z M123.094,122.39h265.812V59.155
	H123.094V122.39z"/>
<path d="M163.753,236.303h-50.858c-5.633,0-10.199-4.567-10.199-10.199v-52.718c0-5.632,4.566-10.199,10.199-10.199h50.858
	c5.633,0,10.199,4.567,10.199,10.199v52.718C173.953,231.737,169.386,236.303,163.753,236.303z M123.094,215.905h30.46v-32.319
	h-30.46V215.905z"/>
<path d="M241.657,236.303h-50.858c-5.633,0-10.199-4.567-10.199-10.199v-52.718c0-5.632,4.566-10.199,10.199-10.199h50.858
	c5.633,0,10.199,4.567,10.199,10.199v52.718C251.856,231.737,247.29,236.303,241.657,236.303z M200.998,215.905h30.46v-32.319
	h-30.46V215.905z"/>
<path d="M319.992,236.303h-50.858c-5.632,0-10.199-4.567-10.199-10.199v-52.718c0-5.632,4.567-10.199,10.199-10.199h50.858
	c5.632,0,10.199,4.567,10.199,10.199v52.718C330.191,231.737,325.624,236.303,319.992,236.303z M279.333,215.905h30.46v-32.319
	h-30.46V215.905z"/>
<path d="M163.753,314.753h-50.858c-5.633,0-10.199-4.567-10.199-10.199v-52.718c0-5.632,4.566-10.199,10.199-10.199h50.858
	c5.633,0,10.199,4.567,10.199,10.199v52.718C173.953,310.186,169.386,314.753,163.753,314.753z M123.094,294.354h30.46v-32.319
	h-30.46V294.354z"/>
<path d="M241.657,314.753h-50.858c-5.633,0-10.199-4.567-10.199-10.199v-52.718c0-5.632,4.566-10.199,10.199-10.199h50.858
	c5.633,0,10.199,4.567,10.199,10.199v52.718C251.856,310.186,247.29,314.753,241.657,314.753z M200.998,294.354h30.46v-32.319
	h-30.46V294.354z"/>
<path d="M319.992,314.753h-50.858c-5.632,0-10.199-4.567-10.199-10.199v-52.718c0-5.632,4.567-10.199,10.199-10.199h50.858
	c5.632,0,10.199,4.567,10.199,10.199v52.718C330.191,310.186,325.624,314.753,319.992,314.753z M279.333,294.354h30.46v-32.319
	h-30.46V294.354z"/>
<path d="M163.753,394.537h-50.858c-5.633,0-10.199-4.567-10.199-10.199V331.62c0-5.632,4.566-10.199,10.199-10.199h50.858
	c5.633,0,10.199,4.567,10.199,10.199v52.718C173.953,389.971,169.386,394.537,163.753,394.537z M123.094,374.138h30.46v-32.319
	h-30.46V374.138z"/>
<path d="M241.657,394.537h-50.858c-5.633,0-10.199-4.567-10.199-10.199V331.62c0-5.632,4.566-10.199,10.199-10.199h50.858
	c5.633,0,10.199,4.567,10.199,10.199v52.718C251.856,389.971,247.29,394.537,241.657,394.537z M200.998,374.138h30.46v-32.319
	h-30.46V374.138z"/>
<path d="M319.992,394.537h-50.858c-5.632,0-10.199-4.567-10.199-10.199V331.62c0-5.632,4.567-10.199,10.199-10.199h50.858
	c5.632,0,10.199,4.567,10.199,10.199v52.718C330.191,389.971,325.624,394.537,319.992,394.537z M279.333,374.138h30.46v-32.319
	h-30.46V374.138z"/>
<path d="M163.753,474.263h-50.858c-5.633,0-10.199-4.567-10.199-10.199v-52.718c0-5.632,4.566-10.199,10.199-10.199h50.858
	c5.633,0,10.199,4.567,10.199,10.199v52.718C173.953,469.696,169.386,474.263,163.753,474.263z M123.094,453.865h30.46v-32.319
	h-30.46V453.865z"/>
<path d="M241.657,474.263h-50.858c-5.633,0-10.199-4.567-10.199-10.199v-52.718c0-5.632,4.566-10.199,10.199-10.199h50.858
	c5.633,0,10.199,4.567,10.199,10.199v52.718C251.856,469.696,247.29,474.263,241.657,474.263z M200.998,453.865h30.46v-32.319
	h-30.46V453.865z"/>
<path d="M319.992,474.263h-50.858c-5.632,0-10.199-4.567-10.199-10.199v-52.718c0-5.632,4.567-10.199,10.199-10.199h50.858
	c5.632,0,10.199,4.567,10.199,10.199v52.718C330.191,469.696,325.624,474.263,319.992,474.263z M279.333,453.865h30.46v-32.319
	h-30.46V453.865z"/>
<path d="M398.776,236.303h-50.858c-5.632,0-10.199-4.567-10.199-10.199v-52.718c0-5.632,4.567-10.199,10.199-10.199h50.858
	c5.632,0,10.199,4.567,10.199,10.199v52.718C408.975,231.737,404.409,236.303,398.776,236.303z M358.116,215.905h30.46v-32.319
	h-30.46V215.905z"/>
<path d="M398.776,314.753h-50.858c-5.632,0-10.199-4.567-10.199-10.199v-52.718c0-5.632,4.567-10.199,10.199-10.199h50.858
	c5.632,0,10.199,4.567,10.199,10.199v52.718C408.975,310.186,404.409,314.753,398.776,314.753z M358.116,294.354h30.46v-32.319
	h-30.46V294.354z"/>
<path d="M398.776,474.263h-50.858c-5.632,0-10.199-4.567-10.199-10.199v-132.59c0-5.632,4.567-10.199,10.199-10.199h50.858
	c5.632,0,10.199,4.567,10.199,10.199v132.59C408.975,469.696,404.409,474.263,398.776,474.263z M358.116,453.865h30.46V341.673
	h-30.46V453.865z"/>
<path d="M236.622,112.191h-91.793c-5.633,0-10.199-4.567-10.199-10.199s4.566-10.199,10.199-10.199h91.793
	c5.633,0,10.199,4.567,10.199,10.199S242.255,112.191,236.622,112.191z"/>
<path d="M276.398,112.191h-8.159c-5.632,0-10.199-4.567-10.199-10.199s4.567-10.199,10.199-10.199h8.159
	c5.632,0,10.199,4.567,10.199,10.199S282.03,112.191,276.398,112.191z"/>
</svg>