<?xml version="1.0" encoding="iso-8859-1"?>
<!-- Uploaded to: SVG Repo, www.svgrepo.com, Generator: SVG Repo Mixer Tools -->
<svg version="1.1" id="Layer_1" xmlns="http://www.w3.org/2000/svg" xmlns:xlink="http://www.w3.org/1999/xlink" 
	 viewBox="0 0 512 512" xml:space="preserve">
<rect x="10.199" y="91.894" style="fill:#8AE4FF;" width="491.602" height="286.19"/>
<path d="M501.801,81.696H10.199C4.566,81.696,0,86.262,0,91.895v286.187c0,5.633,4.566,10.199,10.199,10.199h193.335l-21.624,21.624
	h-29.432c-5.633,0-10.199,4.566-10.199,10.199s4.566,10.199,10.199,10.199h207.044c5.633,0,10.199-4.566,10.199-10.199
	s-4.566-10.199-10.199-10.199H330.09l-21.624-21.624h193.335c5.633,0,10.199-4.566,10.199-10.199V91.895
	C512,86.262,507.434,81.696,501.801,81.696z M301.241,409.904h-90.482l21.624-21.624h47.235L301.241,409.904z M491.602,367.883
	H20.398V102.095h471.203V367.883z"/>
<path d="M42.837,239.578c5.633,0,10.199-4.566,10.199-10.199v-4.08c0-5.633-4.566-10.199-10.199-10.199s-10.199,4.566-10.199,10.199
	v4.08C32.637,235.012,37.204,239.578,42.837,239.578z"/>
<path d="M42.837,354.829c5.633,0,10.199-4.566,10.199-10.199v-83.633c0-5.633-4.566-10.199-10.199-10.199
	s-10.199,4.566-10.199,10.199v83.633C32.637,350.263,37.204,354.829,42.837,354.829z"/>
</svg>